<?xml version="1.0" encoding="UTF-8" standalone="no"?>
<!-- Created with Inkscape (http://www.inkscape.org/) -->

<svg
   xmlns:dc="http://purl.org/dc/elements/1.1/"
   xmlns:cc="http://creativecommons.org/ns#"
   xmlns:rdf="http://www.w3.org/1999/02/22-rdf-syntax-ns#"
   xmlns:svg="http://www.w3.org/2000/svg"
   xmlns="http://www.w3.org/2000/svg"
   xmlns:sodipodi="http://sodipodi.sourceforge.net/DTD/sodipodi-0.dtd"
   xmlns:inkscape="http://www.inkscape.org/namespaces/inkscape"
   width="40"
   height="40"
   id="svg4039"
   version="1.1"
   inkscape:version="0.48.4 r9939"
   sodipodi:docname="New document 2">
  <defs
     id="defs4041" />
  <sodipodi:namedview
     id="base"
     pagecolor="#ffffff"
     bordercolor="#666666"
     borderopacity="1.0"
     inkscape:pageopacity="0.0"
     inkscape:pageshadow="2"
     inkscape:zoom="3.959798"
     inkscape:cx="16.378109"
     inkscape:cy="11.748261"
     inkscape:document-units="px"
     inkscape:current-layer="layer1"
     showgrid="false"
     inkscape:window-width="711"
     inkscape:window-height="719"
     inkscape:window-x="1960"
     inkscape:window-y="41"
     inkscape:window-maximized="0" />
  <metadata
     id="metadata4044">
    <rdf:RDF>
      <cc:Work
         rdf:about="">
        <dc:format>image/svg+xml</dc:format>
        <dc:type
           rdf:resource="http://purl.org/dc/dcmitype/StillImage" />
        <dc:title></dc:title>
      </cc:Work>
    </rdf:RDF>
  </metadata>
  <g
     inkscape:label="Layer 1"
     inkscape:groupmode="layer"
     id="layer1"
     transform="translate(0,-1012.3622)">
    <path
       inkscape:connector-curvature="0"
       style="text-indent:0;text-align:start;line-height:normal;text-transform:none;block-progression:tb;fill:#000000;fill-opacity:1;-inkscape-font-specification:Bitstream Vera Sans"
       d="m 2.259004,1017.9764 a 0.79931224,0.79931224 0 0 0 -0.6493771,0.7992 l 0,3.1969 a 0.79931224,0.79931224 0 0 0 0.7992336,0.7993 l 3.1969283,0 a 0.79931224,0.79931224 0 0 0 0.7992288,-0.7993 l 0,-3.1969 a 0.79931224,0.79931224 0 0 0 -0.7992288,-0.7992 l -3.1969283,0 a 0.79931224,0.79931224 0 0 0 -0.074895,0 0.79931224,0.79931224 0 0 0 -0.074884,0 z m 0.9490853,1.5984 1.5984659,0 0,1.5985 -1.5984659,0 0,-1.5985 z m 5.369841,0 a 0.80711392,0.80711392 0 0 0 0.2247872,1.5985 l 28.7723645,0 a 0.79931224,0.79931224 0 1 0 0,-1.5985 l -28.7723645,0 a 0.79931224,0.79931224 0 0 0 -0.074893,0 0.80010989,0.80010989 0 0 0 -0.074883,0 0.80273689,0.80273689 0 0 0 -0.074883,0 z m -6.3189263,6.3938 a 0.79931224,0.79931224 0 0 0 -0.6493771,0.7993 l 0,3.197 a 0.79931224,0.79931224 0 0 0 0.7992336,0.7991 l 3.1969283,0 a 0.79931224,0.79931224 0 0 0 0.7992288,-0.7991 l 0,-3.197 a 0.79931224,0.79931224 0 0 0 -0.7992288,-0.7993 l -3.1969283,0 a 0.79931224,0.79931224 0 0 0 -0.074895,0 0.79931224,0.79931224 0 0 0 -0.074884,0 z m 0.9490853,1.5987 1.5984659,0 0,1.5983 -1.5984659,0 0,-1.5983 z m 5.369841,0 a 0.80709619,0.80709619 0 1 0 0.2247872,1.5983 l 28.7723645,0 a 0.79931224,0.79931224 0 1 0 0,-1.5983 l -28.7723645,0 a 0.79931224,0.79931224 0 0 0 -0.074893,0 0.80010989,0.80010989 0 0 0 -0.074883,0 0.80273689,0.80273689 0 0 0 -0.074883,0 z m -6.3189263,6.3938 a 0.79931224,0.79931224 0 0 0 -0.6493771,0.7991 l 0,3.197 a 0.79931224,0.79931224 0 0 0 0.7992336,0.7993 l 3.1969283,0 a 0.79931224,0.79931224 0 0 0 0.7992288,-0.7993 l 0,-3.197 a 0.79931224,0.79931224 0 0 0 -0.7992288,-0.7991 l -3.1969283,0 a 0.79931224,0.79931224 0 0 0 -0.074895,0 0.79931224,0.79931224 0 0 0 -0.074884,0 z m 0.9490853,1.5983 1.5984659,0 0,1.5986 -1.5984659,0 0,-1.5986 z m 5.369841,0 a 0.8071821,0.8071821 0 0 0 0.2247872,1.5986 l 28.7723645,0 a 0.79931885,0.79931885 0 0 0 0,-1.5986 l -28.7723645,0 a 0.79931224,0.79931224 0 0 0 -0.074893,0 0.80010989,0.80010989 0 0 0 -0.074883,0 0.80273689,0.80273689 0 0 0 -0.074883,0 z m -6.3189263,6.394 a 0.79931224,0.79931224 0 0 0 -0.6493771,0.7992 l 0,3.1969 a 0.79931224,0.79931224 0 0 0 0.7992336,0.7993 l 3.1969283,0 a 0.79931224,0.79931224 0 0 0 0.7992288,-0.7993 l 0,-3.1969 a 0.79931224,0.79931224 0 0 0 -0.7992288,-0.7992 l -3.1969283,0 a 0.79931224,0.79931224 0 0 0 -0.074895,0 0.79931224,0.79931224 0 0 0 -0.074884,0 z m 0.9490853,1.5984 1.5984659,0 0,1.5985 -1.5984659,0 0,-1.5985 z m 5.369841,0 a 0.80711392,0.80711392 0 1 0 0.2247872,1.5985 l 28.7723645,0 a 0.79931224,0.79931224 0 1 0 0,-1.5985 l -28.7723645,0 a 0.79931224,0.79931224 0 0 0 -0.074893,0 0.80010989,0.80010989 0 0 0 -0.074883,0 0.80273689,0.80273689 0 0 0 -0.074883,0 z"
       id="path4152" />
  </g>
</svg>
