<?xml version="1.0" encoding="UTF-8" standalone="no"?>
<!-- Created with Inkscape (http://www.inkscape.org/) -->

<svg
   xmlns:dc="http://purl.org/dc/elements/1.1/"
   xmlns:cc="http://creativecommons.org/ns#"
   xmlns:rdf="http://www.w3.org/1999/02/22-rdf-syntax-ns#"
   xmlns:svg="http://www.w3.org/2000/svg"
   xmlns="http://www.w3.org/2000/svg"
   xmlns:sodipodi="http://sodipodi.sourceforge.net/DTD/sodipodi-0.dtd"
   xmlns:inkscape="http://www.inkscape.org/namespaces/inkscape"
   width="40"
   height="40"
   id="svg4039"
   version="1.1"
   inkscape:version="0.48.4 r9939"
   sodipodi:docname="saved.svg">
  <defs
     id="defs4041" />
  <sodipodi:namedview
     id="base"
     pagecolor="#ffffff"
     bordercolor="#666666"
     borderopacity="1.0"
     inkscape:pageopacity="0.0"
     inkscape:pageshadow="2"
     inkscape:zoom="2.8"
     inkscape:cx="36.028668"
     inkscape:cy="22.039128"
     inkscape:document-units="px"
     inkscape:current-layer="layer1"
     showgrid="false"
     inkscape:window-width="711"
     inkscape:window-height="719"
     inkscape:window-x="1960"
     inkscape:window-y="41"
     inkscape:window-maximized="0" />
  <metadata
     id="metadata4044">
    <rdf:RDF>
      <cc:Work
         rdf:about="">
        <dc:format>image/svg+xml</dc:format>
        <dc:type
           rdf:resource="http://purl.org/dc/dcmitype/StillImage" />
        <dc:title></dc:title>
      </cc:Work>
    </rdf:RDF>
  </metadata>
  <g
     inkscape:label="Layer 1"
     inkscape:groupmode="layer"
     id="layer1"
     transform="translate(0,-1012.3622)">
    <path
       inkscape:connector-curvature="0"
       style="text-indent:0;text-align:start;line-height:normal;text-transform:none;block-progression:tb;color:#000000;fill:#000000;fill-opacity:1;overflow:visible;enable-background:accumulate;font-family:Bitstream Vera Sans;-inkscape-font-specification:Bitstream Vera Sans"
       d="m 17.499031,1016.356 -0.08003,0.5403 -0.680262,4.2016 c -0.839278,0.241 -1.649115,0.5479 -2.40093,0.9603 l -3.46134,-2.4609 -0.440171,-0.3202 -0.380148,0.3802 -2.7210522,2.7211 -0.3801485,0.3801 0.3201267,0.4402 2.4209344,3.4813 c -0.4163963,0.7535 -0.7339268,1.5573 -0.9803754,2.4009 l -4.1816201,0.7004 -0.5402097,0.08 0,0.5602 0,3.8415 0,0.5202 0.5202007,0.1 4.1816201,0.7403 c 0.2454042,0.8436 0.5823698,1.6461 1.0003844,2.4009 l -2.460952,3.4613 -0.3201222,0.4402 0.3801485,0.3802 2.7210523,2.721 0.380149,0.3801 0.44017,-0.3201 3.461336,-2.4409 c 0.758496,0.419 1.573289,0.7351 2.420938,0.9804 l 0.700271,4.2016 0.08003,0.5402 0.540209,0 3.841489,0 0.540205,0 0.100039,-0.5202 0.740289,-4.2016 c 0.84215,-0.2471 1.627901,-0.6019 2.380921,-1.0204 l 3.521362,2.4609 0.44017,0.3201 0.380149,-0.3801 2.721052,-2.721 0.380149,-0.3802 -0.320127,-0.4601 -2.500965,-3.4614 c 0.409488,-0.7454 0.739186,-1.5492 0.98038,-2.3809 l 4.241642,-0.7403 0.5202,-0.1 0,-0.5202 0,-3.8415 0,-0.5602 -0.540209,-0.08 -4.201629,-0.6803 c -0.242941,-0.8387 -0.587708,-1.6296 -1.000384,-2.381 l 2.460952,-3.5213 0.320122,-0.4402 -0.380144,-0.3801 -2.721056,-2.7211 -0.380145,-0.3802 -0.460179,0.3202 -3.441331,2.4809 c -0.752429,-0.4181 -1.557402,-0.7342 -2.40093,-0.9803 l -0.740289,-4.2217 -0.100039,-0.5202 -0.540205,0 -3.841489,0 -0.540209,0 z m 1.100428,1.2805 2.761065,0 0.700275,4.0216 0.05999,0.4001 0.420162,0.1 c 1.027212,0.2559 1.980284,0.6672 2.861109,1.2005 l 0.360135,0.2201 0.340135,-0.2401 3.301275,-2.3809 1.96076,1.9408 -2.340903,3.3613 -0.240097,0.3401 0.200079,0.3601 c 0.527878,0.8784 0.924977,1.8398 1.180458,2.8611 l 0.120044,0.4002 0.400157,0.08 4.041564,0.6603 0,2.761 -4.041564,0.7004 -0.420166,0.08 -0.100035,0.4001 c -0.252849,1.0204 -0.652713,1.9829 -1.180458,2.8611 l -0.200079,0.3601 0.240097,0.3402 2.380921,3.3213 -1.940751,1.9407 -3.361302,-2.3409 -0.340135,-0.2401 -0.360135,0.2201 c -0.876015,0.5332 -1.837489,0.9407 -2.861109,1.2005 l -0.400157,0.1 -0.08003,0.4002 -0.700271,4.0215 -2.781073,0 -0.660258,-4.0016 -0.05999,-0.4201 -0.420161,-0.1 c -1.02831,-0.2541 -1.995127,-0.6482 -2.881118,-1.1805 l -0.340131,-0.2201 -0.360139,0.2401 -3.321284,2.3209 -1.9407514,-1.9608 2.3409044,-3.2812 0.240096,-0.3401 -0.200079,-0.3602 c -0.537853,-0.8886 -0.964047,-1.8488 -1.2204716,-2.8811 l -0.1000389,-0.4001 -0.4001573,-0.08 -3.9815373,-0.7004 0,-2.761 3.9815373,-0.6603 0.4201657,-0.08 0.1000395,-0.4002 c 0.2591446,-1.036 0.6644546,-2.0138 1.2004626,-2.9011 l 0.220083,-0.3601 -0.240092,-0.3401 -2.3208989,-3.3213 1.9407549,-1.9408 3.301276,2.341 0.34013,0.26 0.36014,-0.2201 c 0.881861,-0.5301 1.852163,-0.928 2.881118,-1.1805 l 0.420161,-0.1 0.05999,-0.4201 0.660257,-4.0016 z M 20,1026.6 c -3.174683,0 -5.762231,2.5875 -5.762231,5.7622 0,3.1747 2.587548,5.7622 5.762231,5.7622 3.174679,0 5.762231,-2.5875 5.762231,-5.7622 0,-3.1747 -2.587552,-5.7622 -5.762231,-5.7622 z m 0,1.2805 c 2.482548,0 4.481733,1.9991 4.481733,4.4817 0,2.4826 -1.999185,4.4817 -4.481733,4.4817 -2.482548,0 -4.481733,-1.9991 -4.481733,-4.4817 0,-2.4826 1.999185,-4.4817 4.481733,-4.4817 z"
       overflow="visible"
       id="path4194" />
  </g>
</svg>
